<svg width="100" height="100" viewBox="0 0 100 100" fill="none" xmlns="http://www.w3.org/2000/svg">
<rect width="100" height="100" rx="20" fill="white"/>
<path d="M25.8314 31.384H19.9794V37.28C19.9794 44.804 16.8994 52.548 10.0794 55.76L13.5554 60.468C18.1314 58.224 21.1674 53.956 22.9274 48.808C24.5994 53.648 27.4594 57.564 31.6834 59.72L35.2034 55.144C28.6914 51.932 25.8314 44.584 25.8314 37.28V31.384ZM48.5354 43.836H42.6394V28.26H36.8314V68.784H42.6394V48.676H48.5354V43.836ZM85.052 28.26H79.2V57.564H85.052V28.26ZM76.648 48.104C70.092 45.948 67.144 40.976 67.144 36.224V35.74H75.152V31.164H53.108V35.74H61.248V36.224C61.248 41.284 58.3 46.608 51.568 48.72L54.516 53.252C59.224 51.712 62.48 48.588 64.284 44.628C66.132 48.236 69.212 51.14 73.7 52.548L76.648 48.104ZM63.888 63.46V54.924H58.08V68.08H86.064V63.46H63.888Z" fill="black"/>
</svg>
